<svg width="20" height="15" viewBox="0 0 20 15" fill="none" xmlns="http://www.w3.org/2000/svg">
<path d="M0 7.50041C-1.90338e-08 7.30151 0.0835558 7.11074 0.232285 6.97009C0.381015 6.82944 0.582738 6.75041 0.793074 6.75041H16.3264L10.5419 1.28104C10.4683 1.21136 10.4098 1.12864 10.3699 1.0376C10.33 0.946545 10.3095 0.848965 10.3095 0.750415C10.3095 0.651875 10.33 0.554295 10.3699 0.463246C10.4098 0.372201 10.4683 0.289476 10.5419 0.219793C10.6157 0.15011 10.7031 0.094836 10.7993 0.057123C10.8957 0.019411 10.9989 0 11.103 0C11.2073 0 11.3104 0.019411 11.4067 0.057123C11.503 0.094835 11.5905 0.150109 11.6641 0.219793L18.8018 6.96979C18.8756 7.03944 18.9341 7.12216 18.9739 7.21321C19.0139 7.30427 19.0344 7.40185 19.0344 7.50041C19.0344 7.59898 19.0139 7.69657 18.9739 7.78762C18.9341 7.87867 18.8756 7.96138 18.8018 8.03104L11.6641 14.781C11.5153 14.9217 11.3135 15.0008 11.103 15.0008C10.8926 15.0008 10.6907 14.9217 10.5419 14.781C10.3931 14.6403 10.3095 14.4494 10.3095 14.2504C10.3095 14.0514 10.3931 13.8605 10.5419 13.7198L16.3264 8.25042H0.793074C0.582738 8.25042 0.381015 8.17141 0.232285 8.03075C0.0835558 7.8901 1.79764e-08 7.69933 0 7.50041Z" fill="white"/>
</svg>
