<svg width="18" height="16" viewBox="0 0 18 16" fill="none" xmlns="http://www.w3.org/2000/svg">
<g clip-path="url(#clip0_1_591)">
<g clip-path="url(#clip1_1_591)">
<path d="M-0.000579834 7.99956C-0.000579852 7.80065 0.0784378 7.60989 0.219089 7.46923C0.359741 7.32858 0.550508 7.24956 0.74942 7.24956H15.4391L9.96879 1.78019C9.89911 1.71051 9.84384 1.62778 9.80612 1.53674C9.76841 1.44569 9.749 1.34811 9.749 1.24956C9.749 1.15102 9.76841 1.05344 9.80612 0.962391C9.84384 0.871347 9.89911 0.788622 9.96879 0.718939C10.0385 0.649256 10.1212 0.593982 10.2122 0.556269C10.3033 0.518557 10.4009 0.499146 10.4994 0.499146C10.598 0.499146 10.6955 0.518557 10.7866 0.556269C10.8776 0.593981 10.9604 0.649255 11.03 0.718939L17.78 7.46894C17.8498 7.53859 17.9051 7.62131 17.9428 7.71236C17.9806 7.80341 18 7.901 18 7.99956C18 8.09813 17.9806 8.19572 17.9428 8.28677C17.9051 8.37782 17.8498 8.46053 17.78 8.53019L11.03 15.2802C10.8893 15.4209 10.6984 15.5 10.4994 15.5C10.3004 15.5 10.1095 15.4209 9.96879 15.2802C9.82806 15.1395 9.749 14.9486 9.749 14.7496C9.749 14.5506 9.82806 14.3597 9.96879 14.219L15.4391 8.74956H0.74942C0.550508 8.74956 0.359741 8.67055 0.219089 8.52989C0.0784378 8.38924 -0.000579817 8.19848 -0.000579834 7.99956Z" fill="#4DAC73"/>
</g>
</g>
<defs>
<clipPath id="clip0_1_591">
<rect width="18" height="16" fill="white"/>
</clipPath>
<clipPath id="clip1_1_591">
<rect width="18" height="16" fill="white"/>
</clipPath>
</defs>
</svg>
