<svg width="496" height="41" viewBox="0 0 496 41" fill="none" xmlns="http://www.w3.org/2000/svg">
<g clip-path="url(#clip0_1_695)">
<path d="M114.204 37.805V1.58545L138.401 24.935V2.88626H144.766V39.1058L120.569 15.8619V37.805H114.204Z" fill="white"/>
<path d="M150.271 25.1788C150.271 21.2195 151.495 18.0162 153.991 15.6097C156.488 13.1544 159.695 11.9512 163.564 11.9512C167.433 11.9512 170.285 13.1544 172.583 15.6097C174.923 18.0162 176.097 21.0243 176.097 24.5772C176.097 25.3252 176.047 26.0813 175.997 26.7317H156.331C156.538 30.7398 159.538 33.2926 164.077 33.2926C168.103 33.2926 171.153 32.3414 173.294 30.3902V36C170.798 37.7073 167.64 38.5528 163.821 38.5528C159.795 38.5528 156.488 37.3496 153.991 34.9918C151.495 32.5853 150.271 29.3821 150.271 25.4227V25.1707V25.1788ZM169.88 22.4715C169.88 21.0162 169.268 19.7154 168.045 18.6666C166.821 17.6178 165.342 17.065 163.564 17.065C161.679 17.065 160.051 17.6178 158.67 18.6666C157.298 19.7154 156.579 20.9674 156.48 22.4715H169.88Z" fill="white"/>
<path d="M187.761 39.4147L177.213 12.5611H183.222L188.67 26.7887L195.854 11.9106L202.988 26.7887L208.436 12.5611H214.446L203.897 39.4147L195.846 23.0326L187.744 39.4147H187.761Z" fill="white"/>
<path d="M220.265 37.8049V18.0163H216.091V12.5529H220.265V11.3008C220.265 7.44717 221.084 5.39026 223.068 3.83742C224.44 2.73173 226.531 2.18701 229.433 2.18701C230.45 2.18701 231.318 2.23579 232.078 2.39026V7.55287C231.624 7.39839 230.805 7.30083 229.739 7.30083C227.242 7.30083 226.176 8.30083 226.176 10.8537V12.561H231.219V18.0244H226.176V37.813H220.265V37.8049ZM235.294 37.8049V2.8862H241.411V37.8049H235.294Z" fill="white"/>
<path d="M245.685 25.1792C245.685 21.4231 247.058 18.2198 249.761 15.6588C252.464 13.106 255.771 11.8052 259.697 11.8052C263.624 11.8052 266.931 13.106 269.634 15.6588C272.337 18.2117 273.709 21.4231 273.709 25.1792C273.709 28.9353 272.337 32.1466 269.634 34.6995C266.931 37.2523 263.624 38.5613 259.697 38.5613C255.771 38.5613 252.464 37.2605 249.761 34.6995C247.058 32.1466 245.685 28.9353 245.685 25.1792ZM265.352 30.8377C266.881 29.2849 267.642 27.4312 267.642 25.1792C267.642 22.9271 266.881 21.0735 265.352 19.5694C263.822 18.0166 261.938 17.2686 259.697 17.2686C257.457 17.2686 255.523 18.0166 253.993 19.5694C252.514 21.0735 251.753 22.9271 251.753 25.1792C251.753 27.4312 252.514 29.2849 253.993 30.8377C255.523 32.3418 257.407 33.0897 259.697 33.0897C261.987 33.0897 263.822 32.3418 265.352 30.8377Z" fill="white"/>
<path d="M284.605 39.4147L274.057 12.5611H280.066L285.514 26.7887L292.698 11.9106L299.832 26.7887L305.28 12.5611H311.29L300.741 39.4147L292.69 23.0326L284.588 39.4147H284.605Z" fill="white"/>
<path d="M316.44 37.8049V2.88623H327.798C330.807 2.88623 333.403 3.88623 335.494 5.94314C337.586 7.95127 338.652 10.4553 338.652 13.5041C338.652 16.5529 337.578 19.0651 335.494 21.122C333.403 23.1301 330.807 24.1301 327.798 24.1301H320.416V37.8049H316.44ZM320.416 20.5204H327.649C329.633 20.5204 331.32 19.87 332.642 18.5122C334.015 17.1627 334.676 15.5041 334.676 13.5041C334.676 11.5041 334.015 9.84558 332.642 8.49599C331.32 7.14639 329.633 6.48786 327.649 6.48786H320.416V20.5122V20.5204Z" fill="white"/>
<path d="M363.304 16.3172V12.5611H367.073V37.8132H363.304V34.0571C361.824 36.6099 358.823 38.5693 354.185 38.5693C350.565 38.5693 347.465 37.3172 344.968 34.7644C342.471 32.2115 341.198 29.0002 341.198 25.1953C341.198 21.3904 342.471 18.2359 344.968 15.6749C347.465 13.114 350.573 11.8213 354.185 11.8213C358.823 11.8213 361.824 13.7725 363.304 16.3335V16.3172ZM361.014 32.301C362.849 30.3985 363.766 28.0408 363.766 25.1871C363.766 22.3335 362.849 19.9758 361.014 18.1221C359.228 16.2197 356.938 15.2684 354.185 15.2684C351.433 15.2684 349.341 16.2197 347.564 18.1221C345.828 19.9758 344.968 22.3335 344.968 25.1871C344.968 28.0408 345.836 30.3985 347.564 32.301C349.349 34.1546 351.54 35.1058 354.185 35.1058C356.831 35.1058 359.228 34.1546 361.014 32.301Z" fill="white"/>
<path d="M372.827 37.8049V12.561H376.596V16.8211C377.969 14.0163 380.771 12.1626 384.491 12.1626C385.053 12.1626 385.615 12.2114 386.07 12.2602V16.2683C385.409 16.1138 384.541 16.0163 383.524 16.0163C379.498 16.0163 376.596 18.9187 376.596 23.1301V37.8049H372.827Z" fill="white"/>
<path d="M393.105 37.8049V16.0163H389.848V12.561H393.105V2.88623H396.874V12.5529H402.578V16.0082H396.874V37.7968H393.105V37.8049Z" fill="white"/>
<path d="M406.91 37.8049V12.561H410.68V16.8211C412.052 14.0163 415.061 12.1626 418.93 12.1626C424.791 12.1626 428.453 15.9187 428.453 21.6829V37.813H424.683V22.4797C424.683 18.2683 422.088 15.6179 417.963 15.6179C413.838 15.6179 410.68 18.5203 410.68 22.7317V37.813H406.91V37.8049Z" fill="white"/>
<path d="M432.884 25.2846C432.884 21.2765 434.108 18.0732 436.505 15.618C438.902 13.1627 442.002 11.9106 445.722 11.9106C449.235 11.9106 452.038 13.1139 454.229 15.5204C456.419 17.8781 457.543 20.8293 457.543 24.3903C457.543 24.9432 457.543 25.4879 457.494 25.9919H436.662C436.869 31.6017 440.382 35.2115 445.879 35.2115C450.517 35.2115 453.675 33.5611 455.303 31.6017V35.8131C452.807 37.7155 449.649 38.6667 445.879 38.6667C442.11 38.6667 438.853 37.4635 436.455 35.1058C434.058 32.6993 432.892 29.496 432.892 25.5367V25.2846H432.884ZM453.518 22.7318C453.518 20.7237 452.757 19.0245 451.228 17.5692C449.698 16.1139 447.863 15.3659 445.722 15.3659C443.383 15.3659 441.341 16.0651 439.663 17.5204C437.985 18.9757 437.067 20.6749 436.91 22.7318H453.518Z" fill="white"/>
<path d="M462.231 37.8049V12.561H466V16.8211C467.373 14.0163 470.175 12.1626 473.895 12.1626C474.457 12.1626 475.019 12.2114 475.474 12.2602V16.2683C474.813 16.1138 473.945 16.0163 472.928 16.0163C468.902 16.0163 466 18.9187 466 23.1301V37.8049H462.231Z" fill="white"/>
<path d="M478.169 31.0406C480.508 33.6423 483.468 34.9512 487.031 34.9512C490.346 34.9512 492.23 33.4959 492.23 31.4471C492.23 30.0975 491.875 29.1951 490.602 28.2439C489.99 27.7967 489.428 27.3902 488.924 27.1463L486.427 25.8455C483.931 24.6423 482.864 24.0406 481.434 22.8374C480.004 21.5853 479.45 20.1788 479.45 18.3252C479.45 16.374 480.161 14.7642 481.591 13.6179C483.021 12.4146 484.956 11.813 487.403 11.813C489.85 11.813 491.784 12.3658 493.264 13.4146V17.2195C491.586 15.9187 489.75 15.2683 487.758 15.2683C484.749 15.2683 483.228 16.2683 483.228 18.3252C483.228 19.9756 484.096 20.6829 486.336 21.878L488.676 23.0813C489.792 23.6341 490.561 24.0813 491.015 24.3333C491.47 24.5853 492.131 25.0325 492.9 25.5853C493.718 26.1382 494.272 26.691 494.628 27.187C495.289 28.1382 496 29.691 496 31.4471C496 33.0488 495.289 34.6016 493.809 36.1544C492.379 37.6585 490.139 38.4065 487.031 38.4065C483.311 38.4065 480.359 37.4065 478.169 35.3496V31.0406Z" fill="white"/>
<path d="M62.9755 1.13857C60.636 0.439378 55.7504 -0.42241 49.9637 0.227996C43.4413 0.959704 34.2653 3.85401 27.6355 13.4556C16.9136 28.976 4.74507 37.8621 0 39.8459C2.3064 40.5288 7.2168 41.3987 13.0448 40.7402C19.5672 40.0085 28.7349 37.1142 35.3731 27.5125C46.0701 12.0329 58.2221 3.15483 62.9755 1.13857Z" fill="#004B26"/>
<path d="M95.3145 1.16266C92.975 0.455342 88.0894 -0.398317 82.3027 0.25209C75.7803 0.983797 66.6043 3.87811 59.9745 13.4797C49.2526 28.9919 37.0923 37.8862 32.3473 39.87C34.6537 40.5529 39.5641 41.4228 45.3921 40.7724C51.9145 40.0407 61.0822 37.1464 67.7203 27.5448C78.4091 12.0488 90.5446 3.17079 95.3145 1.16266Z" fill="#009444"/>
<path d="M64.6699 39.8702C66.9763 40.5531 71.8867 41.423 77.7147 40.7726C82.1952 40.2685 87.3867 39.7807 91.5283 35.9189C92.6277 34.8945 97.8771 30.0165 96.0667 25.1059C94.744 21.5124 90.0816 19.0897 84.7413 19.6425C82.9475 23.3173 79.6408 28.8214 73.788 33.8376C70.5392 36.6181 67.34 38.5368 64.6781 39.862L64.6699 39.8702Z" fill="#57B94B"/>
</g>
<defs>
<clipPath id="clip0_1_695">
<rect width="496" height="41" fill="white"/>
</clipPath>
</defs>
</svg>
