<svg preserveAspectRatio="none" width="100%" height="100%" overflow="visible" style="display: block;" viewBox="0 0 496 41" fill="none" xmlns="http://www.w3.org/2000/svg">
<g id="Capa_1" clip-path="url(#clip0_0_65)">
<g id="Group">
<path id="Vector" d="M114.204 37.8049V1.58537L138.401 24.935V2.88618H144.766V39.1057L120.569 15.8618V37.8049H114.204Z" fill="var(--fill-0, white)"/>
<path id="Vector_2" d="M150.271 25.1789C150.271 21.2195 151.495 18.0163 153.991 15.6098C156.488 13.1545 159.695 11.9512 163.564 11.9512C167.433 11.9512 170.285 13.1545 172.583 15.6098C174.923 18.0163 176.097 21.0244 176.097 24.5772C176.097 25.3252 176.047 26.0813 175.997 26.7317H156.331C156.538 30.7398 159.538 33.2927 164.077 33.2927C168.103 33.2927 171.153 32.3415 173.294 30.3902V36C170.798 37.7073 167.64 38.5528 163.821 38.5528C159.795 38.5528 156.488 37.3496 153.991 34.9919C151.495 32.5854 150.271 29.3821 150.271 25.4228V25.1707V25.1789ZM169.88 22.4715C169.88 21.0163 169.268 19.7154 168.045 18.6667C166.821 17.6179 165.342 17.065 163.564 17.065C161.679 17.065 160.051 17.6179 158.67 18.6667C157.298 19.7154 156.579 20.9675 156.48 22.4715H169.88Z" fill="var(--fill-0, white)"/>
<path id="Vector_3" d="M187.761 39.4146L177.213 12.561H183.222L188.67 26.7886L195.854 11.9106L202.988 26.7886L208.436 12.561H214.446L203.897 39.4146L195.846 23.0325L187.744 39.4146H187.761Z" fill="var(--fill-0, white)"/>
<path id="Vector_4" d="M220.265 37.8049V18.0163H216.091V12.5528H220.265V11.3008C220.265 7.44715 221.084 5.39024 223.068 3.8374C224.44 2.73171 226.531 2.18699 229.433 2.18699C230.45 2.18699 231.318 2.23577 232.078 2.39024V7.55285C231.624 7.39837 230.805 7.30081 229.739 7.30081C227.242 7.30081 226.176 8.30081 226.176 10.8537V12.561H231.219V18.0244H226.176V37.813H220.265V37.8049ZM235.294 37.8049V2.88618H241.411V37.8049H235.294Z" fill="var(--fill-0, white)"/>
<path id="Vector_5" d="M245.685 25.1789C245.685 21.4228 247.058 18.2195 249.761 15.6585C252.464 13.1057 255.771 11.8049 259.697 11.8049C263.624 11.8049 266.931 13.1057 269.634 15.6585C272.337 18.2114 273.709 21.4228 273.709 25.1789C273.709 28.935 272.337 32.1463 269.634 34.6992C266.931 37.252 263.624 38.561 259.697 38.561C255.771 38.561 252.464 37.2602 249.761 34.6992C247.058 32.1463 245.685 28.935 245.685 25.1789ZM265.352 30.8374C266.881 29.2846 267.642 27.4309 267.642 25.1789C267.642 22.9268 266.881 21.0732 265.352 19.5691C263.822 18.0163 261.938 17.2683 259.697 17.2683C257.457 17.2683 255.523 18.0163 253.993 19.5691C252.514 21.0732 251.753 22.9268 251.753 25.1789C251.753 27.4309 252.514 29.2846 253.993 30.8374C255.523 32.3415 257.407 33.0894 259.697 33.0894C261.987 33.0894 263.822 32.3415 265.352 30.8374Z" fill="var(--fill-0, white)"/>
<path id="Vector_6" d="M284.605 39.4146L274.057 12.561H280.066L285.514 26.7886L292.698 11.9106L299.832 26.7886L305.28 12.561H311.29L300.741 39.4146L292.69 23.0325L284.588 39.4146H284.605Z" fill="var(--fill-0, white)"/>
<path id="Vector_7" d="M316.44 37.8049V2.88618H327.798C330.807 2.88618 333.403 3.88618 335.494 5.94309C337.586 7.95122 338.652 10.4553 338.652 13.5041C338.652 16.5528 337.578 19.065 335.494 21.1219C333.403 23.1301 330.807 24.1301 327.798 24.1301H320.416V37.8049H316.44ZM320.416 20.5203H327.649C329.633 20.5203 331.32 19.8699 332.642 18.5122C334.015 17.1626 334.676 15.5041 334.676 13.5041C334.676 11.5041 334.015 9.84553 332.642 8.49593C331.32 7.14634 329.633 6.4878 327.649 6.4878H320.416V20.5122V20.5203Z" fill="var(--fill-0, white)"/>
<path id="Vector_8" d="M363.304 16.3171V12.561H367.073V37.813H363.304V34.0569C361.824 36.6098 358.823 38.5691 354.185 38.5691C350.565 38.5691 347.465 37.3171 344.968 34.7642C342.471 32.2114 341.198 29 341.198 25.1951C341.198 21.3902 342.471 18.2358 344.968 15.6748C347.465 13.1138 350.573 11.8211 354.185 11.8211C358.823 11.8211 361.824 13.7724 363.304 16.3333V16.3171ZM361.014 32.3008C362.849 30.3984 363.766 28.0407 363.766 25.187C363.766 22.3333 362.849 19.9756 361.014 18.122C359.228 16.2195 356.938 15.2683 354.185 15.2683C351.433 15.2683 349.341 16.2195 347.564 18.122C345.828 19.9756 344.968 22.3333 344.968 25.187C344.968 28.0407 345.836 30.3984 347.564 32.3008C349.349 34.1545 351.54 35.1057 354.185 35.1057C356.831 35.1057 359.228 34.1545 361.014 32.3008Z" fill="var(--fill-0, white)"/>
<path id="Vector_9" d="M372.827 37.8049V12.561H376.596V16.8211C377.969 14.0163 380.771 12.1626 384.491 12.1626C385.053 12.1626 385.615 12.2114 386.07 12.2602V16.2683C385.409 16.1138 384.541 16.0163 383.524 16.0163C379.498 16.0163 376.596 18.9187 376.596 23.1301V37.8049H372.827Z" fill="var(--fill-0, white)"/>
<path id="Vector_10" d="M393.105 37.8049V16.0163H389.848V12.561H393.105V2.88618H396.874V12.5528H402.578V16.0081H396.874V37.7967H393.105V37.8049Z" fill="var(--fill-0, white)"/>
<path id="Vector_11" d="M406.91 37.8049V12.561H410.68V16.8211C412.052 14.0163 415.061 12.1626 418.93 12.1626C424.791 12.1626 428.453 15.9187 428.453 21.6829V37.813H424.683V22.4797C424.683 18.2683 422.088 15.6179 417.963 15.6179C413.838 15.6179 410.68 18.5203 410.68 22.7317V37.813H406.91V37.8049Z" fill="var(--fill-0, white)"/>
<path id="Vector_12" d="M432.884 25.2846C432.884 21.2764 434.108 18.0732 436.505 15.6179C438.902 13.1626 442.002 11.9106 445.722 11.9106C449.235 11.9106 452.038 13.1138 454.229 15.5203C456.419 17.8781 457.543 20.8293 457.543 24.3902C457.543 24.9431 457.543 25.4878 457.494 25.9919H436.662C436.869 31.6016 440.382 35.2114 445.879 35.2114C450.517 35.2114 453.675 33.561 455.303 31.6016V35.813C452.807 37.7154 449.649 38.6667 445.879 38.6667C442.11 38.6667 438.853 37.4634 436.455 35.1057C434.058 32.6992 432.892 29.4959 432.892 25.5366V25.2846H432.884ZM453.518 22.7317C453.518 20.7236 452.757 19.0244 451.228 17.5691C449.698 16.1138 447.863 15.3659 445.722 15.3659C443.383 15.3659 441.341 16.065 439.663 17.5203C437.985 18.9756 437.067 20.6748 436.91 22.7317H453.518Z" fill="var(--fill-0, white)"/>
<path id="Vector_13" d="M462.231 37.8049V12.561H466V16.8211C467.373 14.0163 470.175 12.1626 473.895 12.1626C474.457 12.1626 475.019 12.2114 475.474 12.2602V16.2683C474.813 16.1138 473.945 16.0163 472.928 16.0163C468.902 16.0163 466 18.9187 466 23.1301V37.8049H462.231Z" fill="var(--fill-0, white)"/>
<path id="Vector_14" d="M478.169 31.0406C480.508 33.6423 483.468 34.9512 487.031 34.9512C490.346 34.9512 492.23 33.4959 492.23 31.4472C492.23 30.0976 491.875 29.1951 490.602 28.2439C489.99 27.7967 489.428 27.3902 488.924 27.1463L486.427 25.8455C483.931 24.6423 482.864 24.0406 481.434 22.8374C480.004 21.5854 479.45 20.1789 479.45 18.3252C479.45 16.374 480.161 14.7642 481.591 13.6179C483.021 12.4146 484.956 11.813 487.403 11.813C489.85 11.813 491.784 12.3659 493.264 13.4146V17.2195C491.586 15.9187 489.75 15.2683 487.758 15.2683C484.749 15.2683 483.228 16.2683 483.228 18.3252C483.228 19.9756 484.096 20.6829 486.336 21.878L488.676 23.0813C489.792 23.6341 490.561 24.0813 491.015 24.3333C491.47 24.5854 492.131 25.0325 492.9 25.5854C493.718 26.1382 494.272 26.6911 494.628 27.187C495.289 28.1382 496 29.6911 496 31.4472C496 33.0488 495.289 34.6016 493.809 36.1545C492.379 37.6585 490.139 38.4065 487.031 38.4065C483.311 38.4065 480.359 37.4065 478.169 35.3496V31.0406Z" fill="var(--fill-0, white)"/>
</g>
<g id="Vector_15">
</g>
<g id="Vector_16">
</g>
<g id="Vector_17">
</g>
<g id="Vector_18">
</g>
<path id="Vector_19" d="M62.9755 1.13844C60.636 0.439252 55.7504 -0.422536 49.9637 0.22787C43.4413 0.959577 34.2653 3.85389 27.6355 13.4555C16.9136 28.9758 4.74507 37.862 0 39.8458C2.3064 40.5287 7.2168 41.3986 13.0448 40.7401C19.5672 40.0084 28.7349 37.114 35.3731 27.5124C46.0701 12.0327 58.2221 3.1547 62.9755 1.13844Z" fill="var(--fill-0, #004B26)"/>
<path id="Vector_20" d="M95.3145 1.1626C92.975 0.455285 88.0894 -0.398374 82.3027 0.252033C75.7803 0.98374 66.6043 3.87805 59.9745 13.4797C49.2526 28.9919 37.0923 37.8862 32.3473 39.8699C34.6537 40.5528 39.5641 41.4228 45.3921 40.7724C51.9145 40.0407 61.0822 37.1463 67.7203 27.5447C78.4091 12.0488 90.5446 3.17073 95.3145 1.1626Z" fill="var(--fill-0, #009444)"/>
<path id="Vector_21" d="M64.6699 39.8699C66.9763 40.5528 71.8867 41.4228 77.7147 40.7724C82.1952 40.2683 87.3867 39.7805 91.5283 35.9187C92.6277 34.8943 97.8771 30.0163 96.0667 25.1057C94.744 21.5122 90.0816 19.0894 84.7413 19.6423C82.9475 23.3171 79.6408 28.8211 73.788 33.8374C70.5392 36.6179 67.34 38.5366 64.6781 39.8618L64.6699 39.8699Z" fill="var(--fill-0, #57B94B)"/>
</g>
<defs>
<clipPath id="clip0_0_65">
<rect width="496" height="41" fill="white"/>
</clipPath>
</defs>
</svg>
