<svg width="334" height="29" viewBox="0 0 334 29" fill="none" xmlns="http://www.w3.org/2000/svg">
<g clip-path="url(#clip0_1_597)">
<path d="M76.9035 26.74V1.12136L93.1971 17.6369V2.04144H97.4835V27.6601L81.1898 11.2193V26.74H76.9035Z" fill="#038839"/>
<path d="M101.191 17.8094C101.191 15.0089 102.015 12.7432 103.696 11.041C105.377 9.30438 107.537 8.4533 110.142 8.4533C112.747 8.4533 114.668 9.30438 116.215 11.041C117.791 12.7432 118.581 14.8709 118.581 17.3839C118.581 17.9129 118.548 18.4477 118.514 18.9078H105.271C105.41 21.7428 107.431 23.5485 110.487 23.5485C113.198 23.5485 115.252 22.8757 116.694 21.4955V25.4634C115.013 26.671 112.886 27.2691 110.315 27.2691C107.604 27.2691 105.377 26.418 103.696 24.7503C102.015 23.0482 101.191 20.7825 101.191 17.982V17.8037V17.8094ZM114.395 15.8945C114.395 14.8652 113.983 13.9451 113.159 13.2033C112.335 12.4614 111.339 12.0704 110.142 12.0704C108.873 12.0704 107.776 12.4614 106.847 13.2033C105.923 13.9451 105.438 14.8307 105.371 15.8945H114.395Z" fill="#038839"/>
<path d="M126.436 27.8786L119.333 8.88459H123.38L127.048 18.948L131.885 8.42455L136.69 18.948L140.358 8.88459H144.405L137.302 27.8786L131.88 16.2913L126.425 27.8786H126.436Z" fill="#038839"/>
<path d="M148.324 26.74V12.7432H145.513V8.87884H148.324V7.99326C148.324 5.2675 148.875 3.81261 150.211 2.71426C151.135 1.93218 152.543 1.5469 154.497 1.5469C155.182 1.5469 155.766 1.5814 156.279 1.69066V5.34226C155.972 5.233 155.421 5.16399 154.703 5.16399C153.022 5.16399 152.304 5.87131 152.304 7.67698V8.88459H155.7V12.749H152.304V26.7458H148.324V26.74ZM158.444 26.74V2.04144H162.563V26.74H158.444Z" fill="#038839"/>
<path d="M165.441 17.8094C165.441 15.1527 166.365 12.887 168.186 11.0756C170.006 9.26988 172.233 8.34979 174.877 8.34979C177.521 8.34979 179.748 9.26988 181.568 11.0756C183.388 12.8812 184.312 15.1527 184.312 17.8094C184.312 20.4662 183.388 22.7377 181.568 24.5433C179.748 26.349 177.521 27.2748 174.877 27.2748C172.233 27.2748 170.006 26.3547 168.186 24.5433C166.365 22.7377 165.441 20.4662 165.441 17.8094ZM178.684 21.8118C179.714 20.7135 180.226 19.4023 180.226 17.8094C180.226 16.2165 179.714 14.9054 178.684 13.8416C177.655 12.7432 176.385 12.2142 174.877 12.2142C173.368 12.2142 172.066 12.7432 171.036 13.8416C170.039 14.9054 169.527 16.2165 169.527 17.8094C169.527 19.4023 170.039 20.7135 171.036 21.8118C172.066 22.8757 173.335 23.4047 174.877 23.4047C176.419 23.4047 177.655 22.8757 178.684 21.8118Z" fill="#038839"/>
<path d="M191.649 27.8786L184.546 8.88459H188.593L192.262 18.948L197.099 8.42455L201.903 18.948L205.571 8.88459H209.618L202.515 27.8786L197.093 16.2913L191.638 27.8786H191.649Z" fill="#038839"/>
<path d="M213.086 26.74V2.04144H220.735C222.761 2.04144 224.509 2.74876 225.918 4.20365C227.326 5.62403 228.044 7.3952 228.044 9.55166C228.044 11.7081 227.32 13.485 225.918 14.9399C224.509 16.3603 222.761 17.0676 220.735 17.0676H215.764V26.74H213.086ZM215.764 14.5144H220.635C221.971 14.5144 223.106 14.0543 223.997 13.094C224.921 12.1394 225.367 10.9663 225.367 9.55166C225.367 8.13702 224.921 6.96391 223.997 6.00932C223.106 5.05473 221.971 4.58894 220.635 4.58894H215.764V14.5086V14.5144Z" fill="#038839"/>
<path d="M244.644 11.5413V8.88459H247.182V26.7458H244.644V24.089C243.647 25.8947 241.627 27.2806 238.504 27.2806C236.066 27.2806 233.978 26.395 232.297 24.5893C230.616 22.7837 229.759 20.5122 229.759 17.8209C229.759 15.1297 230.616 12.8985 232.297 11.0871C233.978 9.27563 236.071 8.36129 238.504 8.36129C241.627 8.36129 243.647 9.74142 244.644 11.5528V11.5413ZM243.102 22.8469C244.338 21.5013 244.956 19.8336 244.956 17.8152C244.956 15.7967 244.338 14.1291 243.102 12.818C241.899 11.4723 240.358 10.7995 238.504 10.7995C236.65 10.7995 235.242 11.4723 234.045 12.818C232.876 14.1291 232.297 15.7967 232.297 17.8152C232.297 19.8336 232.882 21.5013 234.045 22.8469C235.247 24.158 236.723 24.8309 238.504 24.8309C240.285 24.8309 241.899 24.158 243.102 22.8469Z" fill="#038839"/>
<path d="M251.057 26.74V8.88459H253.595V11.8979C254.519 9.91394 256.406 8.60282 258.911 8.60282C259.29 8.60282 259.668 8.63732 259.974 8.67182V11.5068C259.529 11.3976 258.945 11.3286 258.26 11.3286C255.549 11.3286 253.595 13.3815 253.595 16.3603V26.74H251.057Z" fill="#038839"/>
<path d="M264.712 26.74V11.3286H262.518V8.88459H264.712V2.04144H267.25V8.87884H271.091V11.3228H267.25V26.7343H264.712V26.74Z" fill="#038839"/>
<path d="M274.008 26.74V8.88459H276.546V11.8979C277.471 9.91394 279.497 8.60282 282.102 8.60282C286.049 8.60282 288.515 11.2596 288.515 15.3367V26.7458H285.976V15.9003C285.976 12.9215 284.228 11.0468 281.451 11.0468C278.673 11.0468 276.546 13.0997 276.546 16.0785V26.7458H274.008V26.74Z" fill="#038839"/>
<path d="M291.499 17.8842C291.499 15.0492 292.322 12.7835 293.937 11.0468C295.551 9.31013 297.639 8.42455 300.144 8.42455C302.509 8.42455 304.396 9.27563 305.872 10.9778C307.347 12.6454 308.104 14.7329 308.104 17.2516C308.104 17.6427 308.104 18.028 308.07 18.3845H294.042C294.182 22.3524 296.547 24.9056 300.249 24.9056C303.372 24.9056 305.499 23.7383 306.595 22.3524V25.3312C304.914 26.6768 302.788 27.3496 300.249 27.3496C297.711 27.3496 295.518 26.4985 293.903 24.8309C292.289 23.1287 291.504 20.863 291.504 18.0625V17.8842H291.499ZM305.393 16.0785C305.393 14.6581 304.881 13.4563 303.851 12.4269C302.821 11.3976 301.585 10.8685 300.144 10.8685C298.568 10.8685 297.193 11.3631 296.063 12.3924C294.933 13.4218 294.315 14.6236 294.209 16.0785H305.393Z" fill="#038839"/>
<path d="M311.26 26.74V8.88459H313.799V11.8979C314.723 9.91394 316.61 8.60282 319.115 8.60282C319.493 8.60282 319.872 8.63732 320.178 8.67182V11.5068C319.733 11.3976 319.148 11.3286 318.463 11.3286C315.752 11.3286 313.799 13.3815 313.799 16.3603V26.74H311.26Z" fill="#038839"/>
<path d="M321.993 21.9556C323.568 23.7958 325.561 24.7216 327.96 24.7216C330.192 24.7216 331.462 23.6922 331.462 22.2431C331.462 21.2885 331.222 20.6502 330.365 19.9774C329.953 19.6611 329.575 19.3736 329.235 19.2011L327.554 18.281C325.873 17.4299 325.155 17.0044 324.192 16.1533C323.229 15.2677 322.856 14.2729 322.856 12.9617C322.856 11.5816 323.334 10.443 324.297 9.63216C325.26 8.78108 326.563 8.35554 328.211 8.35554C329.858 8.35554 331.161 8.74658 332.157 9.4884V12.1797C331.027 11.2596 329.792 10.7995 328.45 10.7995C326.424 10.7995 325.4 11.5068 325.4 12.9617C325.4 14.1291 325.984 14.6294 327.493 15.4747L329.068 16.3258C329.819 16.7168 330.337 17.0331 330.643 17.2114C330.949 17.3896 331.395 17.7059 331.913 18.097C332.464 18.488 332.837 18.879 333.076 19.2298C333.521 19.9026 334 21.001 334 22.2431C334 23.376 333.521 24.4743 332.525 25.5727C331.562 26.6365 330.053 27.1656 327.96 27.1656C325.455 27.1656 323.468 26.4583 321.993 25.0034V21.9556Z" fill="#038839"/>
<path d="M42.4069 0.805144C40.8315 0.310597 37.5416 -0.29896 33.6449 0.161083C29.2528 0.678632 23.0738 2.72583 18.6094 9.51722C11.3894 20.495 3.19527 26.7804 0 28.1835C1.5531 28.6665 4.8597 29.2818 8.7842 28.816C13.1763 28.2985 19.3497 26.2513 23.8198 19.4599C31.023 8.51087 39.206 2.23128 42.4069 0.805144Z" fill="#004B26"/>
<path d="M64.1835 0.822328C62.6082 0.322031 59.3183 -0.281777 55.4216 0.178267C51.0295 0.695816 44.8505 2.74301 40.386 9.53441C33.1661 20.5064 24.9775 26.7975 21.7822 28.2007C23.3353 28.6837 26.6419 29.299 30.5664 28.839C34.9585 28.3214 41.132 26.2742 45.602 19.4829C52.7997 8.52231 60.9716 2.24271 64.1835 0.822328Z" fill="#009444"/>
<path d="M43.5479 28.2007C45.101 28.6837 48.4076 29.299 52.3321 28.839C55.3492 28.4825 58.8451 28.1374 61.634 25.4059C62.3743 24.6813 65.9091 21.231 64.6901 17.7577C63.7994 15.2159 60.6598 13.5023 57.0637 13.8933C55.8558 16.4926 53.6291 20.3857 49.6879 23.9338C47.5002 25.9005 45.3459 27.2576 43.5534 28.1949L43.5479 28.2007Z" fill="#57B94B"/>
</g>
<defs>
<clipPath id="clip0_1_597">
<rect width="334" height="29" fill="white"/>
</clipPath>
</defs>
</svg>
